<svg xmlns="http://www.w3.org/2000/svg" width="108.78" height="128" viewBox="0 0 102.194 120.236" webcrx="">
  <g transform="translate(0)">
    <g transform="translate(0.006 0.073)">
      <path d="M74.052,20.038,24.975,66.009a11.537,11.537,0,0,1-16.4-.559h0a11.59,11.59,0,0,1,.5-16.4L58.148,3.078a11.537,11.537,0,0,1,16.4.559h0A11.59,11.59,0,0,1,74.052,20.038Z" transform="translate(-2.053 0)" fill="#ececec"/>
      <path d="M75.456,78.938,26.379,124.909a11.537,11.537,0,0,1-16.4-.559h0a11.537,11.537,0,0,1,.559-16.4L59.614,61.978a11.537,11.537,0,0,1,16.4.559h0A11.647,11.647,0,0,1,75.456,78.938Z" transform="translate(-2.588 -22.31)" fill="#ebebeb"/>
      <path d="M116.756,102.138,67.679,148.109a11.537,11.537,0,0,1-16.4-.559h0a11.537,11.537,0,0,1,.559-16.4l49.077-45.971a11.537,11.537,0,0,1,16.4.559h0A11.647,11.647,0,0,1,116.756,102.138Z" transform="translate(-18.231 -31.097)" fill="#ececec"/>
      <g transform="translate(76.903 25.481)">
        <path d="M129.824,50.342l-5.964-.186L123.8,49.6a5.406,5.406,0,0,1,1.18-3.6,4.166,4.166,0,0,1,2.733-1.242,5.315,5.315,0,0,1,5.777-3.665c.124,0,3.168.124,4.846,3.852a5.5,5.5,0,0,1,2.92,2.174,3.566,3.566,0,0,1,.248,2.671l-.124.435-5.4-.124V48.851l4.411.062a1.749,1.749,0,0,0-.249-1.242,4.688,4.688,0,0,0-2.485-1.677h-.062l-.124-.311c-1.3-3.23-3.852-3.355-3.852-3.355-3.976-.311-4.659,2.982-4.659,3.168l-.124.5h-.5a3,3,0,0,0-2.3.87,3.592,3.592,0,0,0-.87,2.112l4.783.124Z" transform="translate(-123.795 -41.061)" fill="#363636"/>
        <path d="M143.058,50.852,132,50.915s.248-2.423,2.236-2.609c0,0,2.423-3.293,4.659-1.677,0,0,1.491.683,1.677,1.739,0,0,2.609.808,2.361,1.988" transform="translate(-126.903 -43.001)" fill="#bedff4"/>
      </g>
      <g transform="translate(-0.006 39.71)">
        <path d="M5.4,72.312.06,72.125,0,71.566a4.646,4.646,0,0,1,1.118-3.23,4.016,4.016,0,0,1,2.423-1.118,4.814,4.814,0,0,1,5.218-3.23A5.332,5.332,0,0,1,13.106,67.4a4.6,4.6,0,0,1,2.609,1.988,2.755,2.755,0,0,1,.186,2.423l-.124.435-4.846-.062V70.945l3.852.062a1.381,1.381,0,0,0-.186-.994,3.735,3.735,0,0,0-2.174-1.491l-.311-.062-.124-.311c-1.056-2.8-3.23-2.92-3.293-2.92-3.479-.248-4.038,2.609-4.038,2.733l-.124.5h-.5a2.532,2.532,0,0,0-1.988.745A3.227,3.227,0,0,0,1.3,70.945l4.162.124Z" transform="translate(0.006 -63.967)" fill="#363636"/>
        <path d="M17.115,72.687,7.3,72.749s.248-2.174,1.988-2.3c0,0,2.174-2.92,4.162-1.491,0,0,1.3.621,1.491,1.553,0,0,2.3.683,2.112,1.8" transform="translate(-2.762 -65.709)" fill="#bedff4"/>
      </g>
      <path d="M134.141,163.206l-.932-2.858L130.6,159.6l2.485-.745,1.18-2.858.932,2.609,3.106.994-2.858.87Z" transform="translate(-49.47 -59.116)" fill="#a0d4f3"/>
      <path d="M145.941,81.368l-.932-2.858L142.4,77.7l2.485-.745,1.18-2.858L147,76.771l3.106.932-2.858.932Z" transform="translate(-53.939 -28.095)" fill="#a0d4f3"/>
      <path d="M76.747,55.68l-.683-2.05L74.2,53.071l1.8-.559.87-2.112.683,1.926,2.236.745-2.112.621Z" transform="translate(-28.107 -19.118)" fill="#a0d4f3"/>
      <path d="M6.7,116.327l-.5-1.491-1.3-.373,1.242-.435.621-1.429.5,1.367,1.553.5-1.429.435Z" transform="translate(-1.858 -42.678)" fill="#a0d4f3"/>
      <path d="M74.2,153.227l-.5-1.491-1.3-.373,1.242-.435.621-1.429.5,1.367,1.553.5-1.429.435Z" transform="translate(-27.425 -56.654)" fill="#a0d4f3"/>
      <path d="M50.484,71.911S40.73,70.171,40.42,81.54s-.373,14.972-.373,14.972L37.5,97.567l.5,2.547,7.579.124,1.8,3.6,3.541,1.8,3.292-.808,1.864-.994,1.3-1.739L58,100.176s1.988-.062,2.236-.062l24.1-.062,3.044,5.094,3.665.124,3.541-1.739,1.677-2.609.311-.559L106.7,99.99l.373-2.485-1.118-.559-.373-6.958-2.547-8.324-3.976-4.721-5.9-3.727L86.391,71.6Z" transform="translate(-14.206 -27.148)" fill="#fff"/>
      <g transform="translate(10.683 43.52)">
        <path d="M83.325,133.564H43.132a.955.955,0,0,1-.932-.932h0a.955.955,0,0,1,.932-.932H83.325a.955.955,0,0,1,.932.932h0A.955.955,0,0,1,83.325,133.564Z" transform="translate(-26.669 -93.432)" fill="#666766"/>
        <path d="M120.53,133.564h-6.4a.955.955,0,0,1-.932-.932h0a.955.955,0,0,1,.932-.932h6.4a.955.955,0,0,1,.932.932h0A.915.915,0,0,1,120.53,133.564Z" transform="translate(-53.562 -93.432)" fill="#666766"/>
        <path d="M27.637,133.564h-9.5a.955.955,0,0,1-.932-.932h0a.955.955,0,0,1,.932-.932h9.5a.955.955,0,0,1,.932.932h0A.915.915,0,0,1,27.637,133.564Z" transform="translate(-17.2 -93.432)" fill="#666766"/>
        <path d="M122.55,143.564H78.132a.955.955,0,0,1-.932-.932h0a.955.955,0,0,1,.932-.932H122.55a.955.955,0,0,1,.932.932h0A.955.955,0,0,1,122.55,143.564Z" transform="translate(-39.926 -97.22)" fill="#666766"/>
        <path d="M62.364,143.564H49.132a.955.955,0,0,1-.932-.932h0a.955.955,0,0,1,.932-.932H62.364a.955.955,0,0,1,.932.932h0A.915.915,0,0,1,62.364,143.564Z" transform="translate(-28.942 -97.22)" fill="#666766"/>
        <g transform="translate(6.212)">
          <path d="M61.448,79.2h9.443v8.076H61.2S61.511,79.2,61.448,79.2Z" transform="translate(-40.078 -73.547)" fill="orange"/>
          <path d="M83.8,79.2h9.07v8.076H83.3Z" transform="translate(-48.449 -73.547)" fill="orange"/>
          <path d="M106.7,78.992v8.076h17.7s-3.168-7.827-6.026-8.262S106.7,78.992,106.7,78.992Z" transform="translate(-57.312 -73.339)" fill="orange"/>
          <path d="M72,85.424V79.647A2.558,2.558,0,0,0,69.453,77.1H62.247A2.558,2.558,0,0,0,59.7,79.647v5.777a2.558,2.558,0,0,0,2.547,2.547h7.206A2.519,2.519,0,0,0,72,85.424Zm-10.064,0V79.647a.4.4,0,0,1,.373-.373h7.206a.4.4,0,0,1,.373.373v5.777a.4.4,0,0,1-.373.373H62.247C62.061,85.8,61.936,85.673,61.936,85.424Z" transform="translate(-39.51 -72.751)" fill="#666766"/>
          <path d="M91.615,77.2H84.347A2.558,2.558,0,0,0,81.8,79.747v5.777a2.558,2.558,0,0,0,2.547,2.547h7.206A2.558,2.558,0,0,0,94.1,85.524V79.747A2.506,2.506,0,0,0,91.615,77.2Zm.311,8.262a.4.4,0,0,1-.373.373H84.347a.4.4,0,0,1-.373-.373V79.685a.4.4,0,0,1,.373-.373h7.206a.4.4,0,0,1,.373.373Z" transform="translate(-47.881 -72.789)" fill="#666766"/>
          <path d="M112.058,112.6a2.858,2.858,0,0,0,0,5.715,2.89,2.89,0,0,0,2.858-2.858A2.811,2.811,0,0,0,112.058,112.6Zm0,3.6a.745.745,0,0,1,0-1.491.745.745,0,1,1,0,1.491Z" transform="translate(-58.259 -86.198)" fill="#666766"/>
          <path d="M49.858,112.6a2.858,2.858,0,0,0,0,5.715,2.89,2.89,0,0,0,2.858-2.858A2.811,2.811,0,0,0,49.858,112.6Zm0,3.6a.745.745,0,1,1,.745-.745A.718.718,0,0,1,49.858,116.2Z" transform="translate(-34.7 -86.198)" fill="#666766"/>
          <path d="M65.27,111.5H85.894a.849.849,0,0,1,.87.87h0a.849.849,0,0,1-.87.87H65.27a.849.849,0,0,1-.87-.87h0A.935.935,0,0,1,65.27,111.5Z" transform="translate(-41.29 -85.781)" fill="#666766"/>
          <path d="M47.39,70.162H39.065a9.014,9.014,0,0,0-9.008,9.008V95.446H29a1.8,1.8,0,0,0-1.8,1.8v1.429a1.8,1.8,0,0,0,1.8,1.8h6.585a6.857,6.857,0,0,0,13.543,0h25.1a6.857,6.857,0,0,0,13.543,0h9.5v-.062a1.813,1.813,0,0,0,1.429-1.8V97.185a1.745,1.745,0,0,0-1.429-1.739V91.47a20.2,20.2,0,0,0-.932-6.15H96.4L95.97,84.2c-.062-.124-.062-.186-.124-.311v-.062h0A21.391,21.391,0,0,0,89.136,74.7h0l-.311-.248h0A21.116,21.116,0,0,0,75.966,70.1H66.4m0,.062H49.564M93.112,83.146H77.333a.4.4,0,0,1-.373-.373V77a.4.4,0,0,1,.373-.373H88.018A19.189,19.189,0,0,1,93.112,83.146ZM42.358,104.081a4.721,4.721,0,1,1,4.721-4.721A4.719,4.719,0,0,1,42.358,104.081Zm38.578,0a4.721,4.721,0,1,1,4.721-4.721A4.719,4.719,0,0,1,80.936,104.081ZM96.467,98.3H87.707a6.857,6.857,0,0,0-13.543,0H49.129a6.857,6.857,0,0,0-13.543,0H29.312v-.745h4.349V95.384H32.232V85.32h9.815a1.056,1.056,0,1,0,0-2.112H32.232V79.232A6.814,6.814,0,0,1,39.065,72.4H75.9a19.1,19.1,0,0,1,8.821,2.174H77.333a2.558,2.558,0,0,0-2.547,2.547V82.9a2.558,2.558,0,0,0,2.547,2.547H93.982a18.243,18.243,0,0,1,.994,6.15V95.57H89.944v2.174h6.523Z" transform="translate(-27.2 -70.1)" fill="#666766"/>
        </g>
      </g>
    </g>
  </g>
</svg>