<svg xmlns="http://www.w3.org/2000/svg" width="105.57" height="128" viewBox="0 0 94.234 114.236" webcrx="">
  <g transform="translate(0)">
    <g transform="translate(0.329 0.073)">
      <g transform="translate(0.002 -0.073)">
        <path d="M65.162,19.034,18.534,62.711A10.961,10.961,0,0,1,2.952,62.18h0A11.068,11.068,0,0,1,3.483,46.6L50.111,2.921a10.961,10.961,0,0,1,15.582.531h0A10.961,10.961,0,0,1,65.162,19.034Z" transform="translate(-0.002 0.073)" fill="#ececec"/>
        <path d="M66.531,77.934,19.9,121.611a10.961,10.961,0,0,1-15.582-.531h0A10.961,10.961,0,0,1,4.852,105.5L51.48,61.821a10.961,10.961,0,0,1,15.582.531h0A10.959,10.959,0,0,1,66.531,77.934Z" transform="translate(-0.545 -24.062)" fill="#ececec"/>
        <path d="M107.931,101.134,61.3,144.811a10.961,10.961,0,0,1-15.582-.531h0a10.961,10.961,0,0,1,.531-15.582L92.88,85.021a10.961,10.961,0,0,1,15.582.531h0A11.066,11.066,0,0,1,107.931,101.134Z" transform="translate(-17.509 -33.569)" fill="#ececec"/>
      </g>
      <path d="M51.836,105.3a31.265,31.265,0,0,1-5.548-8.971,16.85,16.85,0,0,1-.826-11.273c2.6-8.322,12.926-12.277,20.658-9.326,7.437,2.833,12.749,11.391,9.444,19.241a15.713,15.713,0,0,1-2.007,3.482,19.777,19.777,0,0,1-5.253,4.663c-2.125,1.476-4.309,2.951-6.433,4.427L51.836,105.3" transform="translate(-18.37 -30.662)" fill="orange"/>
      <g transform="translate(43.334 80.831)" opacity="0.8">
        <path d="M78.424,145.971c-1.653,0-3.718-.413-4.6-2.3a4.15,4.15,0,0,1,.177-3.9A5.707,5.707,0,0,1,78.129,137l.118,1.18A4.494,4.494,0,0,0,75,140.364a2.915,2.915,0,0,0-.118,2.833c1,2.184,4.781,1.594,5.489,1.417l.236,1.18A17.034,17.034,0,0,1,78.424,145.971Z" transform="translate(-73.418 -137)" fill="#363636"/>
        <rect width="1.18" height="8.145" transform="translate(19.002 7.76) rotate(89.413)" fill="#363636"/>
        <rect width="1.18" height="4.368" transform="translate(25.018 7.758) rotate(88.909)" fill="#363636"/>
        <rect width="1.18" height="0.649" transform="translate(9.174 7.783) rotate(82.877)" fill="#363636"/>
      </g>
      <g transform="translate(11.086 88.858)" opacity="0.8">
        <path d="M51.184,159.63A8.969,8.969,0,0,1,49,159.394l.236-1.18c.708.118,4.486.767,5.489-1.417a3.081,3.081,0,0,0-.118-2.833,4.386,4.386,0,0,0-3.246-2.184l.118-1.18a5.653,5.653,0,0,1,4.132,2.774,4.15,4.15,0,0,1,.177,3.9C54.961,159.217,52.9,159.63,51.184,159.63Z" transform="translate(-31.164 -150.6)" fill="#363636"/>
        <rect width="8.145" height="1.18" transform="matrix(1, 0.01, -0.01, 1, 6.037, 7.804)" fill="#363636"/>
        <rect width="4.368" height="1.18" transform="translate(0.022 7.807) rotate(1.081)" fill="#363636"/>
        <rect width="0.649" height="1.18" transform="translate(15.85 7.817) rotate(7.123)" fill="#363636"/>
      </g>
      <g transform="translate(21.575 32.831)" opacity="0.8">
        <path d="M52.93,108.929a1.634,1.634,0,0,1-.531-.059l-2.007-.472a2.389,2.389,0,0,1-1.771-2.774l.3-1.358-.413-2.538a3.307,3.307,0,0,1-1.417-3.777c.118-.354-.826-1.18-1.121-1.476l-.413-.413a15.319,15.319,0,0,1-2.361-2.42,36.85,36.85,0,0,1-5.076-8.735c-3.423-8.794-1.417-21.13,7.968-26.619,6.965-4.073,17.058-3.305,24.494,1.771A19.5,19.5,0,0,1,78.487,70.5a21.679,21.679,0,0,1,.59,8.971c-1,6.906-5.135,12.926-11.982,17.353-.354.236-1.535.767-3.364,1.712-1.417.649-3.423,1.653-4.132,2.066l-.236,1a2.636,2.636,0,0,1-2.3,2.007l-1.358,1.83-.413,1.653A2.573,2.573,0,0,1,52.93,108.929Zm3.423-51.173a18.2,18.2,0,0,0-9.267,2.361C38.647,65.016,36.876,76.23,40,84.2a32.585,32.585,0,0,0,4.781,8.2,14.461,14.461,0,0,0,2.125,2.125l.472.413c.767.708,2.243,2.007,1.712,3.659a1.32,1.32,0,0,0,.767,1.535l.531.236.59,4.014-.354,1.712c-.059.177.059.3.236.354l1.948.472c.177.059.3-.059.354-.236l.472-2.066L56,101.433l.649.118a.523.523,0,0,0,.59-.354l.3-1.3c0-.708.3-.826,5.194-3.187,1.3-.59,2.892-1.417,3.187-1.594,6.433-4.132,10.152-9.5,11.1-15.877a18.562,18.562,0,0,0-.531-8.086A17.784,17.784,0,0,0,69.4,61.829,23.607,23.607,0,0,0,56.353,57.756Z" transform="translate(-36.553 -55.676)" fill="#363636"/>
        <path d="M54.279,99.088A41.261,41.261,0,0,1,48.2,79.079c0-17.412,17.412-21.72,17.589-21.779l.472,2.007c-.649.177-16,4.014-16,19.773A39.477,39.477,0,0,0,56.05,97.967ZM66.261,59.307l-.236-1,.236,1Z" transform="translate(-41.326 -56.341)" fill="#363636"/>
        <path d="M61.2,99.688c-4.014-15.4-1.3-25.911,1.771-31.99A26.961,26.961,0,0,1,70.7,57.9l1.18,1.712c-.649.472-16.054,11.509-8.676,39.6Z" transform="translate(-45.827 -56.587)" fill="#363636"/>
        <path d="M68.23,100.824l-1.83-.885c12.926-26.56,6.965-40.135,6.906-40.253l1.889-.885C75.43,59.39,81.628,73.261,68.23,100.824Z" transform="translate(-48.784 -56.956)" fill="#363636"/>
        <path d="M70.321,101.323,69.2,99.552c7.319-4.6,11.864-15.346,11.864-15.4,5.489-15.169-5.489-24.2-5.961-24.553L76.4,58a24.306,24.306,0,0,1,6.611,26.914C82.775,85.387,78.171,96.365,70.321,101.323Z" transform="translate(-49.931 -56.628)" fill="#363636"/>
        <path d="M64.047,132.049a2.008,2.008,0,0,1-.59-.059L55.9,130.042a2.523,2.523,0,0,1-1.83-2.892,2.612,2.612,0,0,1,1.121-1.712,2.381,2.381,0,0,1,1.889-.3h0l7.555,1.948a2.512,2.512,0,0,1,1.771,3.01,2.38,2.38,0,0,1-1.121,1.594A2.182,2.182,0,0,1,64.047,132.049Zm-7.555-4.958a.594.594,0,0,0-.177.059.368.368,0,0,0-.177.3.475.475,0,0,0,.3.531l7.555,1.948a.26.26,0,0,0,.3-.059.368.368,0,0,0,.177-.3.422.422,0,0,0-.3-.531l-7.555-1.948Z" transform="translate(-43.715 -84.109)" fill="#363636"/>
        <rect width="4.663" height="2.066" transform="matrix(0.966, 0.257, -0.257, 0.966, 13.593, 47.315)" fill="#363636"/>
      </g>
      <g transform="translate(-0.329 27.393)" opacity="0.8">
        <path d="M18.664,55.279,13,55.1V54.57a5.136,5.136,0,0,1,1.121-3.423,3.958,3.958,0,0,1,2.6-1.18,5.05,5.05,0,0,1,5.489-3.482c.118,0,3.01.118,4.6,3.659a5.23,5.23,0,0,1,2.774,2.066,3.388,3.388,0,0,1,.236,2.538l-.118.413-5.135-.118v-1.18l4.191.059a1.662,1.662,0,0,0-.236-1.18,4.454,4.454,0,0,0-2.361-1.594h-.177l-.118-.3c-1.239-3.01-3.6-3.187-3.659-3.187a3.865,3.865,0,0,0-4.427,3.01l-.059.472h-.472a2.845,2.845,0,0,0-2.184.826,3.274,3.274,0,0,0-.826,2.007l4.545.118Z" transform="translate(-12.995 -46.461)" fill="#363636"/>
        <path d="M31.647,55.919,21.2,55.978s.236-2.3,2.125-2.479c0,0,2.3-3.128,4.427-1.594,0,0,1.417.649,1.594,1.653,0,0,2.479.767,2.243,1.889" transform="translate(-16.357 -48.519)" fill="#bedff4"/>
      </g>
      <g transform="translate(63.191 73.43)" opacity="0.8">
        <path d="M102.623,133.279l-5.666-.177-.059-.531a5.136,5.136,0,0,1,1.121-3.423,3.958,3.958,0,0,1,2.6-1.18,5,5,0,0,1,5.489-3.482c.118,0,3.01.118,4.6,3.659a5.23,5.23,0,0,1,2.774,2.066,3.388,3.388,0,0,1,.236,2.538l-.118.413-5.135-.118v-1.18l4.191.059a1.662,1.662,0,0,0-.236-1.18,4.454,4.454,0,0,0-2.361-1.594l-.3-.059-.118-.3c-1.239-3.01-3.6-3.187-3.659-3.187-3.777-.3-4.427,2.833-4.427,3.01l-.118.472h-.472a2.845,2.845,0,0,0-2.184.826,3.274,3.274,0,0,0-.826,2.007l4.545.118Z" transform="translate(-96.895 -124.461)" fill="#363636"/>
        <path d="M115.547,133.919l-10.447.059s.236-2.3,2.125-2.479c0,0,2.3-3.128,4.427-1.594,0,0,1.417.649,1.594,1.653,0,0,2.479.767,2.243,1.889" transform="translate(-100.257 -126.519)" fill="#bedff4"/>
      </g>
      <path d="M90.586,170.749l-1.18-3.6-3.305-1,3.128-.944,1.476-3.6,1.239,3.305,3.9,1.239-3.659,1.121Z" transform="translate(-35.281 -66.249)" fill="#a0d4f3" opacity="0.8"/>
      <path d="M15.432,145.981l-1.121-3.305-3.01-.885,2.892-.885L15.55,137.6l1.062,3.069,3.6,1.121-3.305,1Z" transform="translate(-4.63 -56.415)" fill="#a0d4f3" opacity="0.8"/>
      <path d="M56.432,40.981,55.31,37.676l-3.01-.885,2.892-.885L56.55,32.6l1.062,3.069,3.541,1.121-3.305,1Z" transform="translate(-21.431 -13.389)" fill="#a0d4f3" opacity="0.8"/>
      <path d="M110.164,64.406l-.885-2.715-2.479-.767,2.361-.708,1.121-2.715.885,2.538,2.951.885-2.715.885Z" transform="translate(-43.763 -23.592)" fill="#a0d4f3" opacity="0.8"/>
      <path d="M126.774,93.048l-.767-2.184L124,90.274l1.948-.59.885-2.184.767,2.007,2.361.767-2.243.649Z" transform="translate(-50.811 -35.885)" fill="#a0d4f3" opacity="0.8"/>
      <path d="M10.425,102.109l-.59-1.712L8.3,99.925l1.476-.413.708-1.712.59,1.535,1.83.59-1.712.531Z" transform="translate(-3.4 -40.106)" fill="#a0d4f3"/>
    </g>
  </g>
</svg>