<svg xmlns="http://www.w3.org/2000/svg" width="118.81" height="128" viewBox="0 0 100.5 108.273" webcrx="">
  <g transform="translate(0 -0.027)">
    <path d="M76.4,100" transform="translate(-35.008 -45.81)" fill="#dee228" stroke="#2f393a" stroke-miterlimit="10" stroke-width="0.5"/>
    <path d="M75.4,18,30.812,59.716a10.061,10.061,0,0,1-14.3-.488l-.433-.433a10.061,10.061,0,0,1,.488-14.3L61.151,2.775a10.061,10.061,0,0,1,14.3.488l.433.433A10.161,10.161,0,0,1,75.4,18Z" transform="translate(-6.107 0)" fill="#ececec"/>
    <path d="M76.8,78.745,32.212,120.516a10.061,10.061,0,0,1-14.3-.488l-.433-.433a10.061,10.061,0,0,1,.488-14.3L62.551,63.575a10.061,10.061,0,0,1,14.3.488l.433.433A10.045,10.045,0,0,1,76.8,78.745Z" transform="translate(-6.748 -27.86)" fill="#ececec"/>
    <path d="M119.4,102.6,74.812,144.316a10.061,10.061,0,0,1-14.3-.488l-.433-.433a10.061,10.061,0,0,1,.488-14.3l44.588-41.717a10.061,10.061,0,0,1,14.3.488l.433.433A10.061,10.061,0,0,1,119.4,102.6Z" transform="translate(-26.268 -38.766)" fill="#ececec"/>
    <g transform="translate(80.181 10.611)" opacity="0.8">
      <path d="M153.361,27.818l-5.309-.163L148,27.168a4.689,4.689,0,0,1,1.084-3.2,3.551,3.551,0,0,1,2.492-1.084,4.821,4.821,0,0,1,5.2-3.3,5.2,5.2,0,0,1,4.334,3.467A4.849,4.849,0,0,1,163.764,25a3.006,3.006,0,0,1,.217,2.384l-.108.379L159,27.656V26.572l4.009.054a1.613,1.613,0,0,0-.217-1.138,4.034,4.034,0,0,0-2.221-1.517l-.271-.054-.108-.271c-1.192-2.926-3.467-3.034-3.467-3.034a3.8,3.8,0,0,0-4.226,2.817l-.108.433h-.433a2.872,2.872,0,0,0-2.113.758,3.413,3.413,0,0,0-.758,1.9l4.28.163Z" transform="translate(-147.995 -19.563)" fill="#363636"/>
      <path d="M166.215,28.774l-9.915.054s.217-2.167,2-2.33c0,0,2.167-2.98,4.226-1.463,0,0,1.3.65,1.463,1.571,0,0,2.33.7,2.113,1.788" transform="translate(-151.801 -21.874)" fill="#bedff4"/>
    </g>
    <g transform="translate(12.079 26.596)" opacity="0.8">
      <path d="M27.119,56.508l-4.768-.163-.054-.488a4.161,4.161,0,0,1,.975-2.871,3.116,3.116,0,0,1,2.167-.975,4.332,4.332,0,0,1,4.713-2.926,4.734,4.734,0,0,1,3.9,3.088,4,4,0,0,1,2.33,1.788,2.5,2.5,0,0,1,.163,2.167l-.108.379L32.1,56.453V55.37l3.522.054a1.35,1.35,0,0,0-.163-.921c-.542-.921-1.95-1.3-1.95-1.354l-.271-.054-.108-.271c-1.029-2.546-2.98-2.655-3.034-2.655a3.318,3.318,0,0,0-3.684,2.492l-.108.433h-.433a2.463,2.463,0,0,0-1.842.65,2.964,2.964,0,0,0-.65,1.571l3.738.108Z" transform="translate(-22.294 -49.068)" fill="#363636"/>
      <path d="M38.677,57.379l-8.777.054s.217-1.95,1.788-2.059c0,0,1.95-2.655,3.738-1.3,0,0,1.192.542,1.3,1.409,0,0,2.059.65,1.9,1.571" transform="translate(-25.779 -51.185)" fill="#bedff4"/>
    </g>
    <path d="M149.842,173l-.813-2.546-2.33-.7,2.221-.7,1.029-2.546.867,2.384,2.763.867-2.546.758Z" transform="translate(-67.221 -76.282)" fill="#a0d4f3" opacity="0.8"/>
    <path d="M175.9,73.656l-.867-2.6-2.33-.7,2.275-.65L176,67.1l.867,2.384,2.763.867-2.6.813Z" transform="translate(-79.135 -30.734)" fill="#a0d4f3" opacity="0.8"/>
    <path d="M89.83,19.368l-.6-1.9L87.5,16.984l1.625-.488.758-1.9.65,1.734,2,.65-1.842.6Z" transform="translate(-40.094 -6.678)" fill="#a0d4f3"/>
    <path d="M2.059,120.572l-.542-1.625L0,118.459l1.463-.433.65-1.625.542,1.517,1.788.542L2.763,119Z" transform="translate(0 -53.325)" fill="#a0d4f3" opacity="0.8"/>
    <path d="M51.922,176.1,51,173.28l-2.6-.759,2.492-.7L52.03,169l.921,2.6,3.034.921-2.817.867Z" transform="translate(-22.178 -77.427)" fill="#a0d4f3" opacity="0.8"/>
    <path d="M98.571,89.8h6.718l-.108,4.93H98.3Z" transform="translate(-45.043 -41.136)" fill="orange"/>
    <path d="M119.4,91h5.743v4.605H118.8Z" transform="translate(-54.437 -41.686)" fill="orange"/>
    <path d="M119.711,117h5.635v4.5h-5.851C119.44,121.551,119.711,116.945,119.711,117Z" transform="translate(-54.751 -53.599)" fill="orange"/>
    <path d="M98.833,111.2h5.635v13.544H98.4S98.671,111.417,98.833,111.2Z" transform="translate(-45.089 -50.942)" fill="orange"/>
    <path d="M55.171,121.9H66.332v3.955H54.9Z" transform="translate(-25.156 -55.845)" fill="orange"/>
    <path d="M96.066,67.35a1.136,1.136,0,0,0,.6.217,1.275,1.275,0,0,0,.433-.108.965.965,0,0,0,.542-.867V61.5a.946.946,0,0,0-.379-.758L81.709,48.55a2.935,2.935,0,0,0-3.684,0l-5.851,4.605V51.367a.971.971,0,0,0-.975-.975H67.135a.971.971,0,0,0-.975.975v6.5l-3.684,2.926a1.03,1.03,0,0,0-.271.7v5.093a.965.965,0,0,0,.542.867,1.017,1.017,0,0,0,1.029-.108l.488-.379v9.264l-8.939-6.989a2.935,2.935,0,0,0-3.684,0L39.179,79.052a.948.948,0,0,0-.379.758V84.9a.965.965,0,0,0,.542.867,1.021,1.021,0,0,0,.433.108.815.815,0,0,0,.6-.217l.488-.379v9.806H39.775a.975.975,0,1,0,0,1.95H96.608a.975.975,0,1,0,0-1.95H95.524V66.971l.542.379Zm-27.9-15.007h2.167v2.33l-2.167,1.68ZM64.1,61.986,79.217,50.067a1.062,1.062,0,0,1,1.354,0L95.687,61.986v2.655L80.463,52.668a.928.928,0,0,0-1.192,0L64.1,64.641ZM40.75,80.244l12.082-9.535a1.062,1.062,0,0,1,1.354,0l10.077,7.91v2.655L54.078,73.309a.975.975,0,0,0-1.192,0L40.75,82.9V80.244Zm2,3.467,7.269-5.727,3.458-2.725,10.727,8.452V95.089H60.038V83.874a.971.971,0,0,0-.975-.975H47.9a.971.971,0,0,0-.975.975V95.089H42.755V83.712Zm6.122,5.147h9.264v2.167H48.877Zm9.264-1.9H48.877V84.8h9.264Zm-9.264,5.96h9.264v2.167H48.877ZM76.4,87.992h-.054a.9.9,0,0,0-.65.271.921.921,0,0,0,.65,1.571H76.4v5.2H72.228v-12.3H76.4Zm17.229,7.1H78.3V81.815a.971.971,0,0,0-.975-.975H71.253a.971.971,0,0,0-.975.975V95.089H66.106V65.454L79.867,54.618,93.628,65.454Z" transform="translate(-17.779 -21.937)" fill="#363636" opacity="0.8"/>
    <path d="M118.475,118.677h6.068a.971.971,0,0,0,.975-.975v-8.127a.971.971,0,0,0-.975-.975h-6.068a.971.971,0,0,0-.975.975V117.7A1,1,0,0,0,118.475,118.677Zm.975-1.9v-3.2h4.172v3.2Zm4.172-6.176v1.138H119.45V110.6Z" transform="translate(-53.841 -49.751)" fill="#363636" opacity="0.8"/>
    <path d="M118.475,92.477h6.068a.971.971,0,0,0,.975-.975V83.375a.971.971,0,0,0-.975-.975h-6.068a.971.971,0,0,0-.975.975V91.5A1.048,1.048,0,0,0,118.475,92.477Zm.975-1.9v-3.2h4.172v3.2Zm4.172-6.23v1.138H119.45V84.35Z" transform="translate(-53.841 -37.745)" fill="#363636" opacity="0.8"/>
    <path d="M104,82.5H97.875a.971.971,0,0,0-.975.975V91.6a.971.971,0,0,0,.975.975H104a.971.971,0,0,0,.975-.975V83.475A1.048,1.048,0,0,0,104,82.5Zm-.975,1.9v1.138H98.85V84.4Zm-4.172,6.23v-3.2h4.172v3.2Z" transform="translate(-44.402 -37.791)" fill="#363636" opacity="0.8"/>
    <path d="M159.539,136.75h-5.364a.971.971,0,0,1-.975-.975h0a.971.971,0,0,1,.975-.975h5.364a.971.971,0,0,1,.975.975h0A.939.939,0,0,1,159.539,136.75Z" transform="translate(-70.199 -61.756)" fill="#363636" opacity="0.8"/>
    <path d="M90.778,147.75h-51.9a.971.971,0,0,1-.975-.975h0a.971.971,0,0,1,.975-.975h51.9a.971.971,0,0,1,.975.975h0A.971.971,0,0,1,90.778,147.75Z" transform="translate(-17.367 -66.796)" fill="#363636" opacity="0.8"/>
    <path d="M152.523,147.75h-9.048a.971.971,0,0,1-.975-.975h0a.971.971,0,0,1,.975-.975h9.048a.971.971,0,0,1,.975.975h0A1.048,1.048,0,0,1,152.523,147.75Z" transform="translate(-65.297 -66.796)" fill="#363636" opacity="0.8"/>
  </g>
</svg>