<svg xmlns="http://www.w3.org/2000/svg" width="117.71" height="128" viewBox="0 0 97.334 105.847" webcrx="">
  <g transform="translate(-159 -473)">
    <g>
      <g transform="translate(159 472.973)">
        <path d="M82.3,100" transform="translate(-38.711 -47.023)" fill="#dee228" stroke="#2f393a" stroke-miterlimit="10" stroke-width="0.5"/>
        <path d="M79.909,17.6,36.32,58.379A9.836,9.836,0,0,1,22.337,57.9l-.424-.424A9.836,9.836,0,0,1,22.39,43.5L65.98,2.714a9.836,9.836,0,0,1,13.982.477l.424.424A9.933,9.933,0,0,1,79.909,17.6Z" transform="translate(-9.043)" fill="#ececec"/>
        <path d="M81.309,78.3,37.72,119.079a9.836,9.836,0,0,1-13.982-.477l-.424-.424A9.836,9.836,0,0,1,23.79,104.2L67.38,63.414a9.836,9.836,0,0,1,13.982.477l.424.424A9.882,9.882,0,0,1,81.309,78.3Z" transform="translate(-9.702 -28.551)" fill="#ececec"/>
        <path d="M123.909,102.2,80.32,142.979a9.836,9.836,0,0,1-13.982-.477l-.424-.424A9.836,9.836,0,0,1,66.39,128.1L109.98,87.314a9.836,9.836,0,0,1,13.982.477l.424.424A9.836,9.836,0,0,1,123.909,102.2Z" transform="translate(-29.739 -39.793)" fill="#ececec"/>
        <g transform="translate(75.312 22.82)" opacity="0.8">
          <path d="M147.441,51.133l-5.19-.159L142.2,50.5a4.584,4.584,0,0,1,1.059-3.125,3.471,3.471,0,0,1,2.436-1.059,4.713,4.713,0,0,1,5.085-3.231,5.082,5.082,0,0,1,4.237,3.39,4.741,4.741,0,0,1,2.6,1.907,2.938,2.938,0,0,1,.212,2.33l-.106.371-4.767-.106V49.915l3.919.053a1.577,1.577,0,0,0-.212-1.112,3.944,3.944,0,0,0-2.172-1.483l-.265-.053-.106-.265c-1.165-2.807-3.337-2.966-3.443-2.966a3.661,3.661,0,0,0-4.131,2.754l-.106.424h-.424a2.807,2.807,0,0,0-2.066.742,3.337,3.337,0,0,0-.742,1.854l4.184.159Z" transform="translate(-142.195 -43.063)" fill="#363636"/>
          <path d="M160.239,52.228l-9.639.106s.212-2.119,1.96-2.277c0,0,2.119-2.913,4.131-1.43,0,0,1.271.636,1.43,1.536,0,0,2.277.689,2.066,1.748" transform="translate(-146.149 -45.482)" fill="#bedff4"/>
        </g>
        <g transform="translate(10.961 37.123)" opacity="0.8">
          <path d="M25.411,77.341l-4.661-.159-.053-.477a4.067,4.067,0,0,1,.953-2.807,3.046,3.046,0,0,1,2.119-.953,4.235,4.235,0,0,1,4.608-2.86A4.628,4.628,0,0,1,32.191,73.1a3.906,3.906,0,0,1,2.277,1.748,2.448,2.448,0,0,1,.159,2.119l-.106.371-4.237-.053V76.229l3.443.053a1.32,1.32,0,0,0-.159-.9c-.53-.9-1.907-1.271-1.907-1.324L31.4,74l-.106-.265a3.724,3.724,0,0,0-2.966-2.6,3.194,3.194,0,0,0-3.6,2.436L24.617,74h-.424a2.408,2.408,0,0,0-1.8.636,2.9,2.9,0,0,0-.636,1.536l3.655.106Z" transform="translate(-20.694 -70.068)" fill="#363636"/>
          <path d="M36.88,78.3l-8.58.053s.212-1.907,1.748-2.013c0,0,1.907-2.6,3.655-1.271,0,0,1.165.53,1.271,1.377,0,0,2.013.636,1.854,1.536" transform="translate(-24.272 -72.242)" fill="#bedff4"/>
        </g>
        <path d="M144.825,160.509l-.847-2.542-2.277-.689,2.172-.636,1.059-2.542.794,2.33,2.7.847-2.489.794Z" transform="translate(-66.65 -72.47)" fill="#a0d4f3"/>
        <path d="M148.725,88.856l-.794-2.489-2.33-.689,2.224-.689,1.006-2.489.847,2.33,2.7.847-2.542.742Z" transform="translate(-68.485 -38.792)" fill="#a0d4f3"/>
        <path d="M87.277,47.861l-.583-1.8L85,45.53l1.589-.477L87.33,43.2l.636,1.695,1.96.636-1.8.583Z" transform="translate(-39.981 -20.307)" fill="#a0d4f3"/>
        <path d="M2.013,114.231l-.53-1.642L0,112.166l1.43-.424.636-1.642.53,1.536,1.748.53-1.642.477Z" transform="translate(0 -51.774)" fill="#a0d4f3"/>
        <path d="M71.99,176.091l-.9-2.754L68.6,172.6l2.383-.742L72.1,169.1l.953,2.6,2.913.9-2.7.847Z" transform="translate(-32.267 -79.525)" fill="orange"/>
        <g transform="translate(8.792 34.704)" opacity="0.9">
          <path d="M112.848,95.731a.052.052,0,0,1-.053.053L96.377,117.658c-.106.159-.106.159-.477.159V94.195h.053a8.687,8.687,0,1,0,0-17.372h0V65.7a19.412,19.412,0,0,1,16.737,9.851A19.943,19.943,0,0,1,112.848,95.731Z" transform="translate(-53.9 -65.594)" fill="orange"/>
          <path d="M78.678,65.7V76.928h-.106A8.686,8.686,0,0,0,78.731,94.3h-.053v23.622s.106-.106.053-.106h-.053a.571.571,0,0,1-.424-.106L61.889,95.889a.052.052,0,0,0-.053-.053A20.169,20.169,0,0,1,78.678,65.7Z" transform="translate(-36.625 -65.594)" fill="orange"/>
          <g transform="translate(31.99 10.01)">
            <path d="M87.41,84.8H87.3a9.747,9.747,0,1,0,0,19.491h.106a9.746,9.746,0,1,0,0-19.491Zm-.053,18.431H87.3a8.713,8.713,0,0,1-.159-17.425c.053,0,.053.053.159.053h.053a8.686,8.686,0,1,1,0,17.372Z" transform="translate(-77.188 -84.588)" fill="#5b5b5e"/>
            <path d="M87.222,104.314h-.106a9.958,9.958,0,1,1,0-19.914h.106a9.958,9.958,0,1,1,0,19.914Zm-.106-19.544a9.588,9.588,0,1,0,0,19.173h.106a9.587,9.587,0,1,0,0-19.173Zm.053,18.484h-.053a8.872,8.872,0,0,1-.159-17.743c.053,0,.106,0,.106.053h.053a8.846,8.846,0,1,1,.053,17.69ZM86.957,85.83a8.5,8.5,0,0,0,.159,17h.053a8.5,8.5,0,1,0-.053-17C87.01,85.883,86.957,85.83,86.957,85.83Z" transform="translate(-77 -84.4)" fill="#5b5b5e"/>
          </g>
          <g transform="translate(22.549)">
            <path d="M95.533,75.451A19.243,19.243,0,0,0,78.9,65.6H78.8A20.114,20.114,0,0,0,61.954,95.684a.052.052,0,0,0,.053.053l16.366,21.821c.106.159.265.106.424.106h.053a.052.052,0,0,1,.053.053.483.483,0,0,0,.424-.159L95.692,95.684a.052.052,0,0,1,.053-.053A20.072,20.072,0,0,0,95.533,75.451Zm-.847,19.7L78.9,116.287l-.053.053-.053-.053L62.96,95.048a19.117,19.117,0,0,1,.159-19.12A18.766,18.766,0,0,1,78.8,66.659H78.9A18.193,18.193,0,0,1,94.58,75.928,19.316,19.316,0,0,1,94.686,95.154Z" transform="translate(-59.239 -65.547)" fill="#5b5b5e" stroke="#5b5b5e" stroke-width="0.3"/>
            <path d="M78.837,117.775a.185.185,0,0,1-.106-.053h-.106c-.159,0-.265,0-.371-.159L61.889,95.742a.185.185,0,0,1-.053-.106A20.139,20.139,0,0,1,78.731,65.5h.106a19.346,19.346,0,0,1,16.684,9.851h0a20.136,20.136,0,0,1,.159,20.285c0,.053,0,.053-.053.053h0L79.261,117.564A.389.389,0,0,1,78.837,117.775Zm-.106-.159h0c.106,0,.106.053.106.053h0c.106,0,.265,0,.318-.106L95.468,95.689c0-.053,0-.053.053-.053h0a19.845,19.845,0,0,0-.159-20.126,19.19,19.19,0,0,0-16.578-9.8h-.106a20.033,20.033,0,0,0-16.79,29.978h0v.053l16.366,21.821c.053.106.159.106.318.106A.41.41,0,0,1,78.731,117.617Zm0-1.218-.106-.106L62.789,95.054a19.272,19.272,0,0,1,.159-19.226,18.934,18.934,0,0,1,15.73-9.322h.106a18.172,18.172,0,0,1,15.73,9.322,19.188,19.188,0,0,1,.159,19.226h0L78.89,116.187Zm0-49.68A18.951,18.951,0,0,0,62.948,95.054l15.836,21.186.053-.053L94.621,95.054a18.993,18.993,0,0,0-.159-19.12,18,18,0,0,0-15.624-9.269h-.106Z" transform="translate(-59.174 -65.5)" fill="#5b5b5e"/>
          </g>
          <g transform="translate(0 27.805)">
            <path d="M19.443,137.693a7.459,7.459,0,0,0,1.059.053c7.839-.159,15.677-.159,23.516.053,2.383.053,4.873.159,7.1-.742a7.759,7.759,0,0,0,4.025-3.76,6.068,6.068,0,0,0-6.25-8.739,7.3,7.3,0,0,0-5.72,4.4,7.083,7.083,0,0,0-.53-3.125,10.583,10.583,0,0,0-3.337-5.085,7.335,7.335,0,0,0-9,.53,8.511,8.511,0,0,0-2.172,8.951,4.3,4.3,0,0,0-6.832,4.5,4.507,4.507,0,0,0-2.224.053,1.457,1.457,0,0,0-.159,2.807A3.048,3.048,0,0,0,19.443,137.693Z" transform="translate(-17.218 -118.678)" fill="#fff" stroke="#5b5b5e" stroke-width="0.3"/>
            <path d="M45.412,137.913c-.689,0-1.324,0-2.013-.053-8-.212-15.889-.265-23.463-.053h-.265a5.757,5.757,0,0,1-.953-.053h-.053c-.159-.053-.318-.053-.477-.106l-.106-.053A2.266,2.266,0,0,1,16.6,135.53a2.374,2.374,0,0,1,1.642-2.172,3.275,3.275,0,0,1,1.589-.159,5.123,5.123,0,0,1,2.224-4.5,5.383,5.383,0,0,1,4.4-.583,9.249,9.249,0,0,1,2.754-8.1,8.136,8.136,0,0,1,9.957-.583,11.13,11.13,0,0,1,3.6,5.4c.106.318.265.689.371,1.112a7.663,7.663,0,0,1,5.138-2.86,7.078,7.078,0,0,1,6.991,3.707,6.841,6.841,0,0,1,0,6.091,8.513,8.513,0,0,1-4.449,4.131A13.493,13.493,0,0,1,45.412,137.913Zm-15.307-1.695c4.4,0,8.845.053,13.347.212,2.33.053,4.714.159,6.779-.689a6.956,6.956,0,0,0,3.655-3.39,5.37,5.37,0,0,0-5.508-7.733,6.731,6.731,0,0,0-5.138,3.919l-1.907,4.555.53-4.926a7.318,7.318,0,0,0-.477-2.754,9.5,9.5,0,0,0-3.072-4.714,6.617,6.617,0,0,0-8.051.477,7.776,7.776,0,0,0-1.96,8.156l.794,2.383-1.96-1.589a3.55,3.55,0,0,0-5.614,3.76L21.843,135l-1.112-.159a3.867,3.867,0,0,0-1.907,0,.919.919,0,0,0-.689.794.684.684,0,0,0,.477.636c.159.053.318.053.477.106a1.291,1.291,0,0,0,.636,0h.265C23.273,136.271,26.663,136.218,30.106,136.218Z" transform="translate(-16.6 -117.997)" fill="#5b5b5e" stroke="#5b5b5e" stroke-width="0.3"/>
          </g>
        </g>
      </g>
    </g>
  </g>
</svg>